0
SECTION
2
HEADER
9
$INSUNITS
70
4
9
$ACADVER
1
AC1014
9
$HANDSEED
5
FFFF
0
ENDSEC
0
SECTION
2
TABLES
0
TABLE
2
VPORT
5
8
100
AcDbSymbolTable
0
ENDTAB
0
TABLE
2
LTYPE
5
5
100
AcDbSymbolTable
0
LTYPE
5
14
100
AcDbSymbolTableRecord
100
AcDbLinetypeTableRecord
2
BYBLOCK
70
0
0
LTYPE
5
15
100
AcDbSymbolTableRecord
100
AcDbLinetypeTableRecord
2
BYLAYER
70
0
0
LTYPE
5
16
100
AcDbSymbolTableRecord
100
AcDbLinetypeTableRecord
2
DASHED
70
0
3
Dashed __ __ __ __ __ __ __ __ __ __ __ __ __ _
72
65
73
2
40
0.75
49
0.5
74
0
49
-0.25
74
0
0
ENDTAB
0
TABLE
2
LAYER
5
2
100
AcDbSymbolTable
70
2
0
LAYER
5
50
100
AcDbSymbolTableRecord
100
AcDbLayerTableRecord
2
0
70
0
62
7
6
CONTINUOUS
0
ENDTAB
0
TABLE
2
STYLE
5
3
100
AcDbSymbolTable
70
1
0
STYLE
5
11
100
AcDbSymbolTableRecord
100
AcDbTextStyleTableRecord
2
STANDARD
70
0
0
ENDTAB
0
TABLE
2
VIEW
5
6
100
AcDbSymbolTable
70
0
0
ENDTAB
0
TABLE
2
UCS
5
7
100
AcDbSymbolTable
70
0
0
ENDTAB
0
TABLE
2
APPID
5
9
100
AcDbSymbolTable
70
2
0
APPID
5
12
100
AcDbSymbolTableRecord
100
AcDbRegAppTableRecord
2
ACAD
70
0
0
ENDTAB
0
TABLE
2
DIMSTYLE
5
A
100
AcDbSymbolTable
70
1
0
ENDTAB
0
TABLE
2
BLOCK_RECORD
5
1
100
AcDbSymbolTable
70
1
0
BLOCK_RECORD
5
1F
100
AcDbSymbolTableRecord
100
AcDbBlockTableRecord
2
*MODEL_SPACE
0
BLOCK_RECORD
5
1B
100
AcDbSymbolTableRecord
100
AcDbBlockTableRecord
2
*PAPER_SPACE
0
ENDTAB
0
ENDSEC
0
SECTION
2
BLOCKS
0
BLOCK
5
20
100
AcDbEntity
100
AcDbBlockBegin
2
*MODEL_SPACE
0
ENDBLK
5
21
100
AcDbEntity
100
AcDbBlockEnd
0
BLOCK
5
1C
100
AcDbEntity
100
AcDbBlockBegin
2
*PAPER_SPACE
0
ENDBLK
5
1D
100
AcDbEntity
100
AcDbBlockEnd
0
ENDSEC
0
SECTION
2
ENTITIES
0
LWPOLYLINE
5
100
100
AcDbEntity
8
0
100
AcDbPolyline
90
8
70
1
43
0.0
10
-388.45000000000005
20
152.82500000000002
42
0.41421356237308721
10
-390.4500000000001
20
150.82500000000002
10
-390.4500000000001
20
58.725000000000009
42
0.41421356237307161
10
-388.45000000000005
20
56.724999999999994
10
-2.0750000000000313
20
56.725000000000001
42
0.41421356237309898
10
-0.075000000000002565
20
58.725000000000009
10
-0.075000000000002842
20
150.82500000000002
42
0.41421356237309548
10
-2.0750000000000317
20
152.82500000000002
0
LWPOLYLINE
5
101
100
AcDbEntity
8
0
100
AcDbPolyline
90
32
70
1
43
0.0
10
-325.00049999999993
20
58.175000000000011
10
-325.00049999999993
20
59.675000000000011
10
-325.58749999999998
20
59.675000000000011
42
-0.4142135623730222
10
-326.08749999999992
20
60.174999999999997
10
-326.08749999999992
20
73.174999999999997
42
-0.41421356237319906
10
-325.58749999999998
20
73.674999999999997
10
-325.00049999999993
20
73.674999999999997
10
-325.00049999999993
20
75.174999999999997
42
-0.41421356237318868
10
-324.50049999999999
20
75.674999999999997
10
-318.50049999999999
20
75.675000000000011
42
-0.41421356237313667
10
-318.00049999999999
20
75.174999999999997
10
-318.00049999999999
20
73.674999999999997
10
-301.12450000000001
20
73.674999999999997
10
-301.12450000000007
20
75.174999999999997
42
-0.41421356237307422
10
-300.62450000000001
20
75.674999999999997
10
-294.62450000000001
20
75.674999999999983
42
-0.41421356237312623
10
-294.12450000000001
20
75.174999999999997
10
-294.12450000000001
20
73.674999999999997
10
-293.53750000000002
20
73.674999999999983
42
-0.41421356237312101
10
-293.03750000000002
20
73.174999999999997
10
-293.03750000000008
20
60.174999999999997
42
-0.4142135623730222
10
-293.53750000000002
20
59.675000000000004
10
-294.12450000000001
20
59.675000000000011
10
-294.12450000000001
20
58.175000000000011
42
-0.41421356237311063
10
-294.62450000000001
20
57.674999999999997
10
-300.62450000000001
20
57.675000000000047
42
-0.414213562373069
10
-301.12450000000001
20
58.175000000000011
10
-301.12450000000001
20
59.675000000000011
10
-318.00049999999999
20
59.675000000000011
10
-318.00049999999999
20
58.175000000000011
42
-0.41421356237314189
10
-318.50049999999999
20
57.675000000000011
10
-324.50049999999999
20
57.67500000000004
42
-0.41421356237326151
0
LWPOLYLINE
5
102
100
AcDbEntity
8
0
100
AcDbPolyline
90
32
70
1
43
0.0
10
-55.855750000000015
20
115.325
10
-55.85575
20
116.82500000000002
10
-72.731750000000005
20
116.82500000000002
10
-72.731749999999991
20
115.32500000000002
42
-0.41421356237311063
10
-73.231750000000005
20
114.82500000000002
10
-79.231750000000005
20
114.82500000000002
42
-0.41421356237308982
10
-79.731750000000005
20
115.325
10
-79.731750000000005
20
116.82500000000002
10
-82.700000000000017
20
116.82500000000002
42
-0.41421356237307422
10
-83.200000000000017
20
117.32500000000002
10
-83.200000000000017
20
130.32499999999999
42
-0.41421356237307422
10
-82.700000000000017
20
130.82499999999999
10
-79.731750000000005
20
130.82499999999999
10
-79.731750000000019
20
132.32499999999999
42
-0.41421356237307944
10
-79.231750000000005
20
132.82500000000002
10
-73.231750000000005
20
132.82499999999999
42
-0.41421356237310542
10
-72.731750000000005
20
132.32499999999999
10
-72.731750000000005
20
130.82499999999999
10
-55.85575
20
130.82499999999999
10
-55.855750000000015
20
132.32499999999999
42
-0.41421356237307422
10
-55.355750000000008
20
132.82500000000002
10
-49.35575
20
132.82499999999999
42
-0.41421356237310542
10
-48.85575
20
132.32499999999999
10
-48.85575
20
130.82499999999999
10
-48.268750000000004
20
130.82499999999999
42
-0.41421356237308982
10
-47.768750000000004
20
130.32499999999999
10
-47.768749999999997
20
117.32500000000002
42
-0.41421356237309503
10
-48.268750000000004
20
116.82500000000002
10
-48.85575
20
116.82500000000002
10
-48.855749999999986
20
115.32500000000002
42
-0.41421356237312101
10
-49.35575
20
114.825
10
-55.355750000000008
20
114.82500000000002
42
-0.41421356237305862
0
LWPOLYLINE
5
103
100
AcDbEntity
8
0
100
AcDbPolyline
90
20
70
1
43
0.0
10
-293.98075
20
115.325
10
-293.98075
20
116.82500000000002
10
-308.91874999999999
20
116.82499999999999
42
-0.41421356237310542
10
-309.41874999999999
20
117.32500000000002
10
-309.41874999999993
20
130.32499999999999
42
-0.41421356237310542
10
-308.91874999999999
20
130.82499999999999
10
-293.98075
20
130.82499999999999
10
-293.98075000000006
20
132.32499999999999
42
-0.4142135623730846
10
-293.48075
20
132.82500000000002
10
-287.48075
20
132.82499999999999
42
-0.4142135623730846
10
-286.98075
20
132.32499999999999
10
-286.98075000000006
20
130.82499999999999
10
-286.39375000000001
20
130.82500000000002
42
-0.41421356237310542
10
-285.89375000000001
20
130.32499999999999
10
-285.89375000000007
20
117.32500000000002
42
-0.41421356237310542
10
-286.39375000000001
20
116.82500000000002
10
-286.98075000000006
20
116.82500000000002
10
-286.98074999999994
20
115.325
42
-0.4142135623730846
10
-287.48075
20
114.825
10
-293.48075
20
114.82500000000002
42
-0.41421356237304302
0
LWPOLYLINE
5
104
100
AcDbEntity
8
0
100
AcDbPolyline
90
50
70
1
43
0.0
10
-322.61924999999997
20
103.68800000000039
10
-325.20625000000041
20
103.68800000000036
42
-0.41421356237318868
10
-325.70625000000001
20
104.18799999999985
10
-325.70625000000007
20
110.18799999999999
42
-0.41421356237223134
10
-325.20625000000041
20
110.68800000000047
10
-322.61924999999997
20
110.68800000000039
10
-322.61925000000008
20
113.27500000000001
42
-0.41421356237313667
10
-322.11925000000002
20
113.77500000000001
10
-316.11925000000002
20
113.77500000000001
42
-0.41421356237313667
10
-315.61925000000002
20
113.27500000000001
10
-315.61925000000002
20
110.68799999999999
10
-314.18124999999998
20
110.68799999999999
10
-314.18124999999998
20
111.27500000000001
42
-0.41421356237310542
10
-313.68124999999998
20
111.77500000000002
10
-298.74325000000005
20
111.77500000000002
10
-298.74324999999999
20
113.27500000000001
42
-0.41421356237310542
10
-298.24324999999999
20
113.77500000000001
10
-292.24324999999999
20
113.77500000000003
42
-0.41421356237310542
10
-291.74324999999999
20
113.27500000000001
10
-291.74324999999999
20
111.77500000000002
10
-288.77499999999998
20
111.77500000000003
42
-0.41421356237310542
10
-288.27499999999998
20
111.27500000000001
10
-288.27499999999998
20
98.275000000000006
42
-0.41421356237310542
10
-288.77499999999998
20
97.775000000000006
10
-291.74324999999982
20
97.774999999999906
10
-291.74324999999982
20
96.27499999999992
42
-0.41421356237314705
10
-292.24324999999976
20
95.77499999999992
10
-298.24324999999982
20
95.774999999999736
42
-0.41421356237310542
10
-298.74324999999982
20
96.274999999999764
10
-298.74324999999988
20
97.77499999999975
10
-309.70625000000001
20
97.77500000000002
10
-309.70625000000001
20
92.724999999999994
10
-307.82499999999999
20
92.725000000000023
42
-0.41421356237310542
10
-307.32499999999999
20
92.224999999999994
10
-307.32500000000005
20
79.224999999999994
42
-0.4142135623730222
10
-307.82499999999999
20
78.724999999999994
10
-320.82500000000005
20
78.725000000000009
42
-0.4142135623730222
10
-321.32499999999999
20
79.224999999999994
10
-321.32499999999999
20
79.811999999999998
10
-325.20625000000001
20
79.812000000000026
42
-0.41421356237301177
10
-325.70625000000001
20
80.311999999999998
10
-325.70625000000007
20
86.312000000000012
42
-0.41421356237323032
10
-325.20625000000001
20
86.812000000000026
10
-321.32499999999999
20
86.812000000000026
10
-321.32499999999999
20
88.250000000000014
10
-323.20625000000001
20
88.250000000000014
42
-0.4142135623730222
10
-323.70624999999995
20
88.75
10
-323.70625000000007
20
101.75
42
-0.41421356237313667
10
-323.20625000000001
20
102.25000000000001
10
-322.61924999999997
20
102.25000000000001
0
LWPOLYLINE
5
105
100
AcDbEntity
8
0
100
AcDbPolyline
90
8
70
1
43
0.0
10
-336.39999999999998
20
97.775000000000006
10
-349.39999999999998
20
97.775000000000006
42
-0.41421356237294937
10
-349.89999999999998
20
98.275000000000006
10
-349.89999999999998
20
111.27499999999998
42
-0.41421356237303258
10
-349.39999999999998
20
111.77499999999998
10
-336.39999999999998
20
111.77499999999998
42
-0.41421356237294937
10
-335.90000000000003
20
111.27499999999998
10
-335.90000000000003
20
98.275000000000006
42
-0.41421356237303258
0
LWPOLYLINE
5
106
100
AcDbEntity
8
0
100
AcDbPolyline
90
8
70
1
43
0.0
10
-336.39999999999998
20
135.87500000000003
10
-349.39999999999998
20
135.87500000000003
42
-0.41421356237294937
10
-349.89999999999998
20
136.37500000000003
10
-349.89999999999998
20
149.375
42
-0.41421356237303258
10
-349.39999999999998
20
149.875
10
-336.39999999999998
20
149.875
42
-0.41421356237294937
10
-335.90000000000003
20
149.375
10
-335.90000000000003
20
136.37500000000003
42
-0.41421356237303258
0
LWPOLYLINE
5
107
100
AcDbEntity
8
0
100
AcDbPolyline
90
8
70
1
43
0.0
10
-388
20
98.275000000000006
10
-388
20
111.27499999999998
42
-0.41421356237303258
10
-387.5
20
111.77499999999998
10
-374.5
20
111.77499999999998
42
-0.41421356237294937
10
-374.00000000000006
20
111.27499999999998
10
-374.00000000000006
20
98.275000000000006
42
-0.41421356237303258
10
-374.5
20
97.775000000000006
10
-387.5
20
97.775000000000006
42
-0.41421356237294937
0
LWPOLYLINE
5
108
100
AcDbEntity
8
0
100
AcDbPolyline
90
8
70
1
43
0.0
10
-388
20
136.37500000000003
10
-388
20
149.375
42
-0.41421356237303258
10
-387.5
20
149.875
10
-374.5
20
149.875
42
-0.41421356237294937
10
-374.00000000000006
20
149.375
10
-374.00000000000006
20
136.37500000000003
42
-0.41421356237303258
10
-374.5
20
135.87500000000003
10
-387.5
20
135.87500000000003
42
-0.41421356237294937
0
LWPOLYLINE
5
109
100
AcDbEntity
8
0
100
AcDbPolyline
90
8
70
1
43
0.0
10
-321.32499999999999
20
136.375
10
-321.32500000000005
20
149.375
42
-0.41421356237313667
10
-320.82500000000005
20
149.875
10
-307.82499999999999
20
149.87500000000003
42
-0.41421356237310542
10
-307.32499999999999
20
149.375
10
-307.32499999999993
20
136.375
42
-0.4142135623730846
10
-307.82499999999999
20
135.875
10
-320.82500000000005
20
135.87500000000003
42
-0.4142135623730222
0
LWPOLYLINE
5
110
100
AcDbEntity
8
0
100
AcDbPolyline
90
8
70
1
43
0.0
10
-297.51250000000005
20
136.375
10
-297.51249999999999
20
149.375
42
-0.41421356237310542
10
-297.01250000000005
20
149.875
10
-284.01249999999999
20
149.875
42
-0.41421356237313667
10
-283.51249999999999
20
149.375
10
-283.51249999999999
20
136.375
42
-0.41421356237309503
10
-284.01249999999999
20
135.875
10
-297.01250000000005
20
135.87500000000003
42
-0.4142135623730846
0
LWPOLYLINE
5
111
100
AcDbEntity
8
0
100
AcDbPolyline
90
8
70
1
43
0.0
10
-273.69999999999999
20
136.375
10
-273.69999999999999
20
149.375
42
-0.41421356237310542
10
-273.19999999999999
20
149.875
10
-260.19999999999999
20
149.875
42
-0.41421356237313667
10
-259.69999999999999
20
149.375
10
-259.69999999999999
20
136.375
42
-0.41421356237309503
10
-260.19999999999999
20
135.875
10
-273.19999999999999
20
135.87500000000003
42
-0.4142135623730846
0
LWPOLYLINE
5
112
100
AcDbEntity
8
0
100
AcDbPolyline
90
8
70
1
43
0.0
10
-239.38749999999999
20
151.375
10
-239.38749999999999
20
134.37500000000003
42
-0.41421356237309503
10
-239.88749999999999
20
133.875
10
-245.88750000000002
20
133.875
42
-0.41421356237309503
10
-246.38750000000002
20
134.37500000000003
10
-246.38750000000002
20
151.375
42
-0.41421356237309503
10
-245.88750000000002
20
151.87500000000003
10
-239.88749999999999
20
151.87500000000003
42
-0.41421356237309503
0
LWPOLYLINE
5
113
100
AcDbEntity
8
0
100
AcDbPolyline
90
8
70
1
43
0.0
10
-125.08750000000001
20
151.375
10
-125.08750000000001
20
134.37500000000003
42
-0.4142135623730534
10
-125.58750000000002
20
133.875
10
-131.58750000000001
20
133.875
42
-0.41421356237307422
10
-132.08750000000003
20
134.37500000000003
10
-132.08750000000003
20
151.375
42
-0.41421356237307422
10
-131.58750000000001
20
151.87500000000003
10
-125.58750000000002
20
151.87500000000003
42
-0.4142135623730534
0
LWPOLYLINE
5
114
100
AcDbEntity
8
0
100
AcDbPolyline
90
8
70
1
43
0.0
10
-354.95000000000005
20
149.375
10
-354.95000000000005
20
136.375
42
-0.41421356237310542
10
-355.45000000000005
20
135.875
10
-368.44999999999999
20
135.87500000000003
42
-0.4142135623730222
10
-368.94999999999993
20
136.375
10
-368.94999999999993
20
149.375
42
-0.41421356237312623
10
-368.44999999999999
20
149.875
10
-355.45000000000005
20
149.875
42
-0.4142135623730222
0
LWPOLYLINE
5
115
100
AcDbEntity
8
0
100
AcDbPolyline
90
8
70
1
43
0.0
10
-178.73750000000001
20
149.375
10
-178.73750000000001
20
136.375
42
-0.41421356237309503
10
-179.23750000000001
20
135.875
10
-192.23750000000001
20
135.87500000000003
42
-0.4142135623730846
10
-192.73750000000004
20
136.375
10
-192.73750000000001
20
149.375
42
-0.41421356237310542
10
-192.23750000000001
20
149.875
10
-179.23750000000001
20
149.875
42
-0.41421356237313667
0
LWPOLYLINE
5
116
100
AcDbEntity
8
0
100
AcDbPolyline
90
8
70
1
43
0.0
10
-236.38750000000002
20
59.675000000000004
42
0.4142135623730222
10
-235.88750000000005
20
60.174999999999997
10
-235.88750000000002
20
73.174999999999997
42
0.41421356237312101
10
-236.38750000000002
20
73.675000000000011
10
-249.38749999999999
20
73.674999999999997
42
0.4142135623730222
10
-249.88749999999999
20
73.174999999999997
10
-249.88749999999999
20
60.174999999999997
42
0.41421356237312623
10
-249.38749999999999
20
59.674999999999997
0
LWPOLYLINE
5
117
100
AcDbEntity
8
0
100
AcDbPolyline
90
8
70
1
43
0.0
10
-122.08750000000002
20
59.675000000000004
42
0.41421356237310542
10
-121.58750000000001
20
60.174999999999997
10
-121.58750000000001
20
73.174999999999997
42
0.41421356237309503
10
-122.08750000000002
20
73.675000000000011
10
-135.08750000000001
20
73.674999999999997
42
0.41421356237310025
10
-135.58750000000001
20
73.174999999999997
10
-135.58750000000001
20
60.174999999999997
42
0.41421356237307944
10
-135.08750000000001
20
59.674999999999997
0
LWPOLYLINE
5
118
100
AcDbEntity
8
0
100
AcDbPolyline
90
8
70
1
43
0.0
10
-254.93750000000003
20
73.174999999999997
10
-254.93750000000006
20
60.174999999999997
42
-0.4142135623730222
10
-255.43750000000003
20
59.675000000000004
10
-268.4375
20
59.675000000000011
42
-0.41421356237312623
10
-268.9375
20
60.174999999999997
10
-268.9375
20
73.174999999999997
42
-0.4142135623730222
10
-268.4375
20
73.674999999999997
10
-255.43750000000003
20
73.674999999999983
42
-0.41421356237312101
0
LWPOLYLINE
5
119
100
AcDbEntity
8
0
100
AcDbPolyline
90
8
70
1
43
0.0
10
-93.512500000000003
20
78.724999999999994
42
0.41421356237310542
10
-93.012499999999989
20
79.224999999999994
10
-93.012499999999989
20
92.224999999999994
42
0.41421356237309503
10
-93.512500000000003
20
92.725000000000009
10
-106.51250000000002
20
92.725000000000009
42
0.41421356237309503
10
-107.01250000000002
20
92.224999999999994
10
-107.01250000000002
20
79.224999999999994
42
0.41421356237310025
10
-106.51250000000002
20
78.724999999999994
0
LWPOLYLINE
5
120
100
AcDbEntity
8
0
100
AcDbPolyline
90
8
70
1
43
0.0
10
-354.95000000000005
20
73.174999999999997
10
-354.95000000000005
20
60.174999999999997
42
-0.41421356237310542
10
-355.45000000000005
20
59.675000000000004
10
-368.44999999999999
20
59.675000000000011
42
-0.4142135623730222
10
-368.94999999999993
20
60.174999999999997
10
-368.94999999999993
20
73.174999999999997
42
-0.41421356237311585
10
-368.44999999999999
20
73.674999999999997
10
-355.45000000000005
20
73.674999999999983
42
-0.4142135623730222
0
LWPOLYLINE
5
121
100
AcDbEntity
8
0
100
AcDbPolyline
90
8
70
1
43
0.0
10
-374.5
20
59.675000000000004
42
0.41421356237310542
10
-374.00000000000006
20
60.174999999999997
10
-374.00000000000006
20
73.174999999999997
42
0.4142135623730222
10
-374.5
20
73.674999999999969
10
-387.5
20
73.674999999999997
42
0.41421356237311585
10
-388
20
73.174999999999997
10
-388
20
60.174999999999997
42
0.4142135623730222
10
-387.5
20
59.675000000000026
0
LWPOLYLINE
5
122
100
AcDbEntity
8
0
100
AcDbPolyline
90
8
70
1
43
0.0
10
-112.56250000000001
20
78.724999999999994
42
0.41421356237310542
10
-112.0625
20
79.224999999999994
10
-112.0625
20
92.224999999999994
42
0.41421356237309503
10
-112.56250000000001
20
92.725000000000009
10
-125.5625
20
92.725000000000009
42
0.41421356237307422
10
-126.06250000000001
20
92.224999999999994
10
-126.06250000000001
20
79.224999999999994
42
0.41421356237307944
10
-125.5625
20
78.724999999999994
0
LWPOLYLINE
5
123
100
AcDbEntity
8
0
100
AcDbPolyline
90
8
70
1
43
0.0
10
-3.0249999999999999
20
78.724999999999994
42
0.41421356237309698
10
-2.5249999999999986
20
79.224999999999994
10
-2.5249999999999999
20
92.224999999999994
42
0.41421356237310542
10
-3.0249999999999999
20
92.725000000000009
10
-16.024999999999999
20
92.725000000000009
42
0.41421356237309631
10
-16.525000000000002
20
92.224999999999994
10
-16.525000000000002
20
79.224999999999994
42
0.41421356237309631
10
-16.024999999999999
20
78.724999999999994
0
LWPOLYLINE
5
124
100
AcDbEntity
8
0
100
AcDbPolyline
90
8
70
1
43
0.0
10
-74.462500000000006
20
78.724999999999994
42
0.41421356237310542
10
-73.962500000000006
20
79.224999999999994
10
-73.962500000000006
20
92.224999999999994
42
0.41421356237310542
10
-74.462500000000006
20
92.725000000000009
10
-87.46250000000002
20
92.725000000000009
42
0.41421356237307422
10
-87.96250000000002
20
92.224999999999994
10
-87.96250000000002
20
79.224999999999994
42
0.41421356237307944
10
-87.46250000000002
20
78.724999999999994
0
LWPOLYLINE
5
125
100
AcDbEntity
8
0
100
AcDbPolyline
90
8
70
1
43
0.0
10
-35.575000000000003
20
79.224999999999994
42
0.41421356237309764
10
-35.075000000000003
20
78.725000000000009
10
-22.074999999999999
20
78.724999999999994
42
0.41421356237309764
10
-21.575000000000003
20
79.224999999999994
10
-21.575000000000003
20
92.224999999999994
42
0.41421356237310802
10
-22.074999999999999
20
92.725000000000009
10
-35.075000000000003
20
92.725000000000009
42
0.41421356237309243
10
-35.57500000000001
20
92.224999999999994
0
LWPOLYLINE
5
126
100
AcDbEntity
8
0
100
AcDbPolyline
90
8
70
1
43
0.0
10
-50.650000000000006
20
78.724999999999994
42
0.41421356237309503
10
-50.150000000000006
20
79.224999999999994
10
-50.150000000000006
20
92.224999999999994
42
0.41421356237308982
10
-50.650000000000006
20
92.725000000000009
10
-63.650000000000006
20
92.725000000000009
42
0.41421356237310025
10
-64.150000000000006
20
92.224999999999994
10
-64.150000000000006
20
79.224999999999994
42
0.41421356237310542
10
-63.650000000000006
20
78.724999999999994
0
LWPOLYLINE
5
127
100
AcDbEntity
8
0
100
AcDbPolyline
90
8
70
1
43
0.0
10
-221.3125
20
79.224999999999994
42
0.41421356237313667
10
-220.8125
20
78.724999999999994
10
-207.8125
20
78.724999999999994
42
0.4142135623730222
10
-207.3125
20
79.224999999999994
10
-207.3125
20
92.224999999999994
42
0.41421356237310542
10
-207.8125
20
92.725000000000009
10
-220.8125
20
92.725000000000009
42
0.41421356237313667
10
-221.3125
20
92.224999999999994
0
LWPOLYLINE
5
128
100
AcDbEntity
8
0
100
AcDbPolyline
90
8
70
1
43
0.0
10
-264.96249999999998
20
78.724999999999994
42
0.41421356237307422
10
-264.46249999999998
20
79.224999999999994
10
-264.46249999999998
20
92.224999999999994
42
0.41421356237313667
10
-264.96249999999998
20
92.725000000000009
10
-277.96249999999998
20
92.725000000000009
42
0.41421356237310542
10
-278.46250000000003
20
92.224999999999994
10
-278.46250000000003
20
79.224999999999994
42
0.41421356237312623
10
-277.96249999999998
20
78.724999999999994
0
LWPOLYLINE
5
129
100
AcDbEntity
8
0
100
AcDbPolyline
90
8
70
1
43
0.0
10
-131.61250000000001
20
78.724999999999994
42
0.41421356237310542
10
-131.11250000000001
20
79.224999999999994
10
-131.11250000000001
20
92.224999999999994
42
0.41421356237309503
10
-131.61250000000001
20
92.725000000000009
10
-144.61250000000001
20
92.725000000000009
42
0.41421356237307422
10
-145.11250000000001
20
92.224999999999994
10
-145.11250000000001
20
79.224999999999994
42
0.41421356237307944
10
-144.61250000000001
20
78.724999999999994
0
LWPOLYLINE
5
130
100
AcDbEntity
8
0
100
AcDbPolyline
90
8
70
1
43
0.0
10
-188.26249999999999
20
92.224999999999994
10
-188.26250000000002
20
79.224999999999994
42
-0.4142135623730222
10
-188.76249999999999
20
78.724999999999994
10
-201.76249999999999
20
78.724999999999994
42
-0.41421356237313667
10
-202.26249999999999
20
79.224999999999994
10
-202.26249999999999
20
92.224999999999994
42
-0.41421356237313667
10
-201.76249999999999
20
92.725000000000009
10
-188.76249999999999
20
92.725000000000023
42
-0.41421356237310542
0
LWPOLYLINE
5
131
100
AcDbEntity
8
0
100
AcDbPolyline
90
8
70
1
43
0.0
10
-226.36250000000001
20
92.224999999999994
10
-226.36250000000004
20
79.224999999999994
42
-0.4142135623730222
10
-226.86250000000001
20
78.724999999999994
10
-239.86250000000001
20
78.724999999999994
42
-0.41421356237313667
10
-240.36250000000001
20
79.224999999999994
10
-240.36250000000001
20
92.224999999999994
42
-0.41421356237313667
10
-239.86250000000001
20
92.725000000000009
10
-226.86250000000001
20
92.725000000000023
42
-0.41421356237310542
0
LWPOLYLINE
5
132
100
AcDbEntity
8
0
100
AcDbPolyline
90
8
70
1
43
0.0
10
-150.66249999999999
20
78.724999999999994
42
0.41421356237310542
10
-150.16249999999999
20
79.224999999999994
10
-150.16249999999999
20
92.224999999999994
42
0.41421356237309503
10
-150.66249999999999
20
92.725000000000009
10
-163.66250000000002
20
92.725000000000009
42
0.41421356237310542
10
-164.16250000000002
20
92.224999999999994
10
-164.16250000000002
20
79.224999999999994
42
0.41421356237312623
10
-163.66250000000002
20
78.724999999999994
0
LWPOLYLINE
5
133
100
AcDbEntity
8
0
100
AcDbPolyline
90
8
70
1
43
0.0
10
-245.91250000000002
20
78.724999999999994
42
0.4142135623730222
10
-245.41250000000005
20
79.224999999999994
10
-245.41250000000002
20
92.224999999999994
42
0.41421356237310542
10
-245.91250000000002
20
92.725000000000009
10
-258.91250000000002
20
92.725000000000009
42
0.41421356237313667
10
-259.41250000000002
20
92.224999999999994
10
-259.41250000000002
20
79.224999999999994
42
0.41421356237313667
10
-258.91250000000002
20
78.724999999999994
0
LWPOLYLINE
5
134
100
AcDbEntity
8
0
100
AcDbPolyline
90
8
70
1
43
0.0
10
-169.71250000000001
20
78.724999999999994
42
0.41421356237307422
10
-169.21249999999998
20
79.224999999999994
10
-169.21250000000001
20
92.224999999999994
42
0.41421356237313667
10
-169.71250000000001
20
92.725000000000009
10
-182.71250000000003
20
92.725000000000009
42
0.41421356237310542
10
-183.21250000000003
20
92.224999999999994
10
-183.21250000000003
20
79.224999999999994
42
0.41421356237312623
10
-182.71250000000003
20
78.724999999999994
0
LWPOLYLINE
5
135
100
AcDbEntity
8
0
100
AcDbPolyline
90
8
70
1
43
0.0
10
-374.5
20
78.724999999999994
42
0.41421356237310542
10
-374.00000000000006
20
79.224999999999994
10
-374.00000000000006
20
92.224999999999994
42
0.4142135623730222
10
-374.5
20
92.725000000000009
10
-387.5
20
92.725000000000009
42
0.41421356237312623
10
-388
20
92.224999999999994
10
-388
20
79.224999999999994
42
0.4142135623730222
10
-387.5
20
78.725000000000023
0
LWPOLYLINE
5
136
100
AcDbEntity
8
0
100
AcDbPolyline
90
8
70
1
43
0.0
10
-284.01249999999999
20
78.724999999999994
42
0.41421356237307422
10
-283.51249999999999
20
79.224999999999994
10
-283.51249999999999
20
92.224999999999994
42
0.41421356237313667
10
-284.01249999999999
20
92.725000000000009
10
-297.01250000000005
20
92.725000000000009
42
0.41421356237310542
10
-297.51250000000005
20
92.224999999999994
10
-297.51250000000005
20
79.224999999999994
42
0.41421356237312623
10
-297.01250000000005
20
78.724999999999994
0
LWPOLYLINE
5
137
100
AcDbEntity
8
0
100
AcDbPolyline
90
8
70
1
43
0.0
10
-335.90000000000003
20
92.224999999999994
10
-335.90000000000003
20
79.224999999999994
42
-0.41421356237310542
10
-336.39999999999998
20
78.724999999999994
10
-349.39999999999998
20
78.725000000000009
42
-0.4142135623730222
10
-349.89999999999998
20
79.224999999999994
10
-349.89999999999998
20
92.224999999999994
42
-0.41421356237312623
10
-349.39999999999998
20
92.725000000000009
10
-336.39999999999998
20
92.724999999999994
42
-0.4142135623730222
0
LWPOLYLINE
5
138
100
AcDbEntity
8
0
100
AcDbPolyline
90
8
70
1
43
0.0
10
-355.45000000000005
20
78.724999999999994
42
0.41421356237310542
10
-354.95000000000005
20
79.224999999999994
10
-354.95000000000005
20
92.224999999999994
42
0.4142135623730222
10
-355.45000000000005
20
92.725000000000009
10
-368.44999999999999
20
92.725000000000009
42
0.41421356237312623
10
-368.94999999999993
20
92.224999999999994
10
-368.94999999999993
20
79.224999999999994
42
0.4142135623730222
10
-368.44999999999999
20
78.725000000000023
0
LWPOLYLINE
5
139
100
AcDbEntity
8
0
100
AcDbPolyline
90
8
70
1
43
0.0
10
-92.725000000000009
20
98.275000000000006
42
0.41421356237309503
10
-92.224999999999994
20
97.775000000000006
10
-79.224999999999994
20
97.775000000000006
42
0.41421356237310025
10
-78.724999999999994
20
98.275000000000006
10
-78.724999999999994
20
111.27500000000001
42
0.41421356237310542
10
-79.224999999999994
20
111.77500000000002
10
-92.224999999999994
20
111.77500000000002
42
0.41421356237309503
10
-92.725000000000009
20
111.27500000000001
0
LWPOLYLINE
5
140
100
AcDbEntity
8
0
100
AcDbPolyline
90
8
70
1
43
0.0
10
-136.375
20
97.775000000000006
42
0.41421356237307422
10
-135.875
20
98.275000000000006
10
-135.875
20
111.27500000000001
42
0.41421356237307422
10
-136.375
20
111.77500000000002
10
-149.375
20
111.77500000000002
42
0.41421356237309503
10
-149.875
20
111.27500000000001
10
-149.875
20
98.275000000000006
42
0.41421356237309503
10
-149.375
20
97.775000000000006
0
LWPOLYLINE
5
141
100
AcDbEntity
8
0
100
AcDbPolyline
90
8
70
1
43
0.0
10
-3.0249999999999999
20
97.775000000000006
42
0.41421356237309437
10
-2.5249999999999941
20
98.275000000000006
10
-2.5249999999999999
20
111.27500000000001
42
0.41421356237310542
10
-3.0249999999999999
20
111.77500000000002
10
-16.024999999999999
20
111.77500000000002
42
0.41421356237309631
10
-16.525000000000002
20
111.27500000000001
10
-16.525000000000002
20
98.275000000000006
42
0.41421356237310675
10
-16.024999999999999
20
97.775000000000006
0
LWPOLYLINE
5
142
100
AcDbEntity
8
0
100
AcDbPolyline
90
8
70
1
43
0.0
10
-97.775000000000006
20
111.27500000000001
10
-97.775000000000006
20
98.275000000000006
42
-0.41421356237309503
10
-98.275000000000006
20
97.775000000000006
10
-111.27500000000001
20
97.775000000000006
42
-0.41421356237309503
10
-111.77500000000002
20
98.275000000000006
10
-111.77500000000002
20
111.27500000000001
42
-0.41421356237309503
10
-111.27500000000001
20
111.77500000000002
10
-98.275000000000006
20
111.77500000000002
42
-0.41421356237309503
0
LWPOLYLINE
5
143
100
AcDbEntity
8
0
100
AcDbPolyline
90
8
70
1
43
0.0
10
-22.074999999999999
20
97.775000000000006
42
0.41421356237309503
10
-21.574999999999992
20
98.275000000000006
10
-21.575000000000003
20
111.27500000000001
42
0.41421356237310802
10
-22.074999999999999
20
111.77500000000002
10
-35.075000000000003
20
111.77500000000002
42
0.41421356237309243
10
-35.57500000000001
20
111.27500000000001
10
-35.575000000000003
20
98.275000000000006
42
0.41421356237310542
10
-35.075000000000003
20
97.775000000000006
0
LWPOLYLINE
5
144
100
AcDbEntity
8
0
100
AcDbPolyline
90
8
70
1
43
0.0
10
-117.32500000000002
20
97.775000000000006
42
0.41421356237309503
10
-116.82500000000002
20
98.275000000000006
10
-116.82500000000002
20
111.27500000000001
42
0.41421356237309503
10
-117.32500000000002
20
111.77500000000002
10
-130.32499999999999
20
111.77500000000002
42
0.41421356237309503
10
-130.82499999999999
20
111.27500000000001
10
-130.82499999999999
20
98.275000000000006
42
0.41421356237309503
10
-130.32499999999999
20
97.775000000000006
0
LWPOLYLINE
5
145
100
AcDbEntity
8
0
100
AcDbPolyline
90
8
70
1
43
0.0
10
-48.268750000000004
20
97.775000000000006
42
0.41421356237309503
10
-47.768749999999997
20
98.275000000000006
10
-47.768750000000004
20
111.27500000000001
42
0.41421356237308982
10
-48.268750000000004
20
111.77500000000002
10
-66.03125
20
111.77500000000002
42
0.41421356237310025
10
-66.531250000000014
20
111.27500000000001
10
-66.53125
20
98.275000000000006
42
0.41421356237310542
10
-66.03125
20
97.775000000000006
0
LWPOLYLINE
5
146
100
AcDbEntity
8
0
100
AcDbPolyline
90
8
70
1
43
0.0
10
-21.575000000000003
20
130.32499999999999
10
-21.574999999999992
20
117.32500000000002
42
-0.41421356237309503
10
-22.074999999999999
20
116.82500000000002
10
-35.075000000000003
20
116.82500000000002
42
-0.41421356237310542
10
-35.575000000000003
20
117.32500000000002
10
-35.575000000000003
20
130.32499999999999
42
-0.41421356237309243
10
-35.075000000000003
20
130.82499999999999
10
-22.074999999999999
20
130.82499999999999
42
-0.41421356237310802
0
LWPOLYLINE
5
147
100
AcDbEntity
8
0
100
AcDbPolyline
90
8
70
1
43
0.0
10
-16.525000000000002
20
117.32500000000002
42
0.41421356237310675
10
-16.024999999999999
20
116.82500000000002
10
-3.0249999999999999
20
116.82500000000002
42
0.41421356237309437
10
-2.5249999999999928
20
117.32500000000002
10
-2.5249999999999999
20
130.32499999999999
42
0.41421356237310542
10
-3.0249999999999999
20
130.82499999999999
10
-16.024999999999999
20
130.82499999999999
42
0.41421356237309631
10
-16.525000000000006
20
130.32499999999999
0
LWPOLYLINE
5
148
100
AcDbEntity
8
0
100
AcDbPolyline
90
8
70
1
43
0.0
10
-155.42500000000001
20
97.775000000000006
42
0.41421356237307422
10
-154.92500000000001
20
98.275000000000006
10
-154.92500000000001
20
111.27500000000001
42
0.41421356237307422
10
-155.42500000000001
20
111.77500000000002
10
-168.42500000000001
20
111.77500000000002
42
0.41421356237310542
10
-168.92500000000001
20
111.27500000000001
10
-168.92500000000001
20
98.275000000000006
42
0.41421356237310542
10
-168.42500000000001
20
97.775000000000006
0
LWPOLYLINE
5
149
100
AcDbEntity
8
0
100
AcDbPolyline
90
8
70
1
43
0.0
10
-245.12500000000003
20
98.275000000000006
42
0.41421356237313667
10
-244.62500000000003
20
97.775000000000006
10
-231.625
20
97.775000000000006
42
0.41421356237310542
10
-231.125
20
98.275000000000006
10
-231.125
20
111.27500000000001
42
0.41421356237310542
10
-231.625
20
111.77500000000002
10
-244.62500000000003
20
111.77500000000002
42
0.41421356237313667
10
-245.12500000000003
20
111.27500000000001
0
LWPOLYLINE
5
150
100
AcDbEntity
8
0
100
AcDbPolyline
90
8
70
1
43
0.0
10
-212.07499999999999
20
111.27500000000001
10
-212.07500000000005
20
98.275000000000006
42
-0.41421356237310542
10
-212.57499999999999
20
97.775000000000006
10
-225.57500000000002
20
97.775000000000006
42
-0.41421356237313667
10
-226.07500000000002
20
98.275000000000006
10
-226.07500000000002
20
111.27500000000001
42
-0.41421356237313667
10
-225.57500000000002
20
111.77500000000002
10
-212.57499999999999
20
111.77500000000003
42
-0.41421356237310542
0
LWPOLYLINE
5
151
100
AcDbEntity
8
0
100
AcDbPolyline
90
8
70
1
43
0.0
10
-250.17500000000001
20
111.27500000000001
10
-250.17500000000007
20
98.275000000000006
42
-0.41421356237310542
10
-250.67500000000001
20
97.775000000000006
10
-263.67500000000001
20
97.775000000000006
42
-0.41421356237313667
10
-264.17500000000007
20
98.275000000000006
10
-264.17500000000007
20
111.27500000000001
42
-0.41421356237313667
10
-263.67500000000001
20
111.77500000000002
10
-250.67500000000001
20
111.77500000000003
42
-0.41421356237310542
0
LWPOLYLINE
5
152
100
AcDbEntity
8
0
100
AcDbPolyline
90
8
70
1
43
0.0
10
-174.47500000000002
20
97.775000000000006
42
0.41421356237313667
10
-173.97500000000002
20
98.275000000000006
10
-173.97500000000002
20
111.27500000000001
42
0.41421356237313667
10
-174.47500000000002
20
111.77500000000002
10
-187.47499999999999
20
111.77500000000002
42
0.41421356237313667
10
-187.97499999999999
20
111.27500000000001
10
-187.97499999999999
20
98.275000000000006
42
0.41421356237313667
10
-187.47499999999999
20
97.775000000000006
0
LWPOLYLINE
5
153
100
AcDbEntity
8
0
100
AcDbPolyline
90
8
70
1
43
0.0
10
-354.95000000000005
20
111.27500000000001
10
-354.95000000000005
20
98.275000000000006
42
-0.41421356237312623
10
-355.45000000000005
20
97.775000000000006
10
-368.44999999999999
20
97.77500000000002
42
-0.4142135623730222
10
-368.94999999999993
20
98.275000000000006
10
-368.94999999999993
20
111.27500000000001
42
-0.41421356237312623
10
-368.44999999999999
20
111.77500000000002
10
-355.45000000000005
20
111.77500000000001
42
-0.4142135623730222
0
LWPOLYLINE
5
154
100
AcDbEntity
8
0
100
AcDbPolyline
90
8
70
1
43
0.0
10
-269.72500000000002
20
97.775000000000006
42
0.41421356237310542
10
-269.22500000000008
20
98.275000000000006
10
-269.22500000000002
20
111.27500000000001
42
0.41421356237310542
10
-269.72500000000002
20
111.77500000000002
10
-282.72500000000002
20
111.77500000000002
42
0.41421356237313667
10
-283.22500000000002
20
111.27500000000001
10
-283.22500000000002
20
98.275000000000006
42
0.41421356237313667
10
-282.72500000000002
20
97.775000000000006
0
LWPOLYLINE
5
155
100
AcDbEntity
8
0
100
AcDbPolyline
90
8
70
1
43
0.0
10
-193.52500000000003
20
97.775000000000006
42
0.41421356237313667
10
-193.02500000000003
20
98.275000000000006
10
-193.02500000000003
20
111.27500000000001
42
0.41421356237313667
10
-193.52500000000003
20
111.77500000000002
10
-206.52500000000003
20
111.77500000000002
42
0.41421356237310542
10
-207.02500000000003
20
111.27500000000001
10
-207.02500000000003
20
98.275000000000006
42
0.41421356237310542
10
-206.52500000000003
20
97.775000000000006
0
LWPOLYLINE
5
156
100
AcDbEntity
8
0
100
AcDbPolyline
90
8
70
1
43
0.0
10
-116.53750000000001
20
60.174999999999997
42
0.414213562373069
10
-116.03750000000002
20
59.674999999999983
10
-103.03750000000001
20
59.675000000000004
42
0.41421356237310542
10
-102.53749999999999
20
60.174999999999997
10
-102.53749999999999
20
73.174999999999997
42
0.41421356237309503
10
-103.03750000000001
20
73.675000000000011
10
-116.03749999999999
20
73.674999999999997
42
0.41421356237310025
10
-116.53750000000001
20
73.174999999999997
0
LWPOLYLINE
5
157
100
AcDbEntity
8
0
100
AcDbPolyline
90
8
70
1
43
0.0
10
-198.28749999999999
20
59.675000000000004
42
0.4142135623730222
10
-197.78750000000002
20
60.174999999999997
10
-197.78749999999999
20
73.174999999999997
42
0.41421356237312101
10
-198.28749999999999
20
73.675000000000011
10
-211.28749999999999
20
73.674999999999997
42
0.41421356237307422
10
-211.78750000000002
20
73.174999999999997
10
-211.78750000000002
20
60.174999999999997
42
0.41421356237313667
10
-211.28749999999999
20
59.675000000000004
0
LWPOLYLINE
5
158
100
AcDbEntity
8
0
100
AcDbPolyline
90
8
70
1
43
0.0
10
-217.33750000000001
20
59.675000000000004
42
0.4142135623730222
10
-216.83750000000003
20
60.174999999999997
10
-216.83750000000001
20
73.174999999999997
42
0.41421356237312101
10
-217.33750000000001
20
73.674999999999997
10
-230.33750000000001
20
73.674999999999997
42
0.41421356237307422
10
-230.83750000000003
20
73.174999999999997
10
-230.83750000000003
20
60.174999999999997
42
0.41421356237313667
10
-230.33750000000001
20
59.675000000000004
0
LWPOLYLINE
5
159
100
AcDbEntity
8
0
100
AcDbPolyline
90
8
70
1
43
0.0
10
-164.95000000000002
20
116.82500000000002
42
0.41421356237313667
10
-164.44999999999999
20
117.32500000000002
10
-164.44999999999999
20
130.32499999999999
42
0.41421356237313667
10
-164.95000000000002
20
130.82499999999999
10
-177.94999999999999
20
130.82499999999999
42
0.41421356237313667
10
-178.44999999999999
20
130.32499999999999
10
-178.44999999999999
20
117.32500000000002
42
0.41421356237313667
10
-177.94999999999999
20
116.82500000000002
0
LWPOLYLINE
5
160
100
AcDbEntity
8
0
100
AcDbPolyline
90
8
70
1
43
0.0
10
-184.00000000000003
20
116.82500000000002
42
0.41421356237313667
10
-183.5
20
117.32500000000002
10
-183.5
20
130.32499999999999
42
0.41421356237313667
10
-184.00000000000003
20
130.82499999999999
10
-197.00000000000003
20
130.82499999999999
42
0.41421356237310542
10
-197.50000000000003
20
130.32499999999999
10
-197.50000000000003
20
117.32500000000002
42
0.41421356237310542
10
-197.00000000000003
20
116.82500000000002
0
LWPOLYLINE
5
161
100
AcDbEntity
8
0
100
AcDbPolyline
90
8
70
1
43
0.0
10
-126.34999999999999
20
130.32499999999999
10
-126.34999999999999
20
117.32500000000002
42
-0.41421356237307422
10
-126.85000000000001
20
116.82500000000002
10
-139.84999999999999
20
116.82500000000002
42
-0.41421356237309503
10
-140.34999999999999
20
117.32500000000002
10
-140.34999999999999
20
130.32499999999999
42
-0.41421356237309503
10
-139.84999999999999
20
130.82499999999999
10
-126.85000000000001
20
130.82499999999999
42
-0.41421356237307422
0
LWPOLYLINE
5
162
100
AcDbEntity
8
0
100
AcDbPolyline
90
8
70
1
43
0.0
10
-241.15000000000003
20
116.82500000000002
42
0.41421356237310542
10
-240.65000000000003
20
117.32500000000002
10
-240.65000000000001
20
130.32499999999999
42
0.41421356237310542
10
-241.15000000000003
20
130.82499999999999
10
-254.15000000000003
20
130.82499999999999
42
0.41421356237313667
10
-254.65000000000003
20
130.32499999999999
10
-254.65000000000003
20
117.32500000000002
42
0.41421356237313667
10
-254.15000000000003
20
116.82500000000002
0
LWPOLYLINE
5
163
100
AcDbEntity
8
0
100
AcDbPolyline
90
8
70
1
43
0.0
10
-107.80000000000001
20
116.82500000000002
42
0.41421356237309503
10
-107.30000000000001
20
117.32500000000002
10
-107.30000000000001
20
130.32499999999999
42
0.41421356237309503
10
-107.80000000000001
20
130.82499999999999
10
-120.8
20
130.82499999999999
42
0.41421356237307422
10
-121.30000000000001
20
130.32499999999999
10
-121.30000000000001
20
117.32500000000002
42
0.41421356237307422
10
-120.8
20
116.82500000000002
0
LWPOLYLINE
5
164
100
AcDbEntity
8
0
100
AcDbPolyline
90
8
70
1
43
0.0
10
-88.75
20
116.82500000000002
42
0.41421356237309503
10
-88.25
20
117.32500000000002
10
-88.25
20
130.32499999999999
42
0.41421356237309503
10
-88.75
20
130.82499999999999
10
-101.75
20
130.82499999999999
42
0.41421356237309503
10
-102.25000000000001
20
130.32499999999999
10
-102.25000000000001
20
117.32500000000002
42
0.41421356237309503
10
-101.75
20
116.82500000000002
0
LWPOLYLINE
5
165
100
AcDbEntity
8
0
100
AcDbPolyline
90
8
70
1
43
0.0
10
-203.05000000000004
20
116.82500000000002
42
0.41421356237313667
10
-202.55000000000001
20
117.32500000000002
10
-202.55000000000001
20
130.32499999999999
42
0.41421356237313667
10
-203.05000000000004
20
130.82499999999999
10
-216.05000000000004
20
130.82499999999999
42
0.41421356237310542
10
-216.55000000000004
20
130.32499999999999
10
-216.55000000000004
20
117.32500000000002
42
0.41421356237310542
10
-216.05000000000004
20
116.82500000000002
0
LWPOLYLINE
5
166
100
AcDbEntity
8
0
100
AcDbPolyline
90
8
70
1
43
0.0
10
-273.69999999999999
20
117.32500000000002
42
0.41421356237310542
10
-273.19999999999999
20
116.82499999999999
10
-260.19999999999999
20
116.82500000000002
42
0.41421356237313667
10
-259.69999999999999
20
117.32500000000002
10
-259.69999999999999
20
130.32499999999999
42
0.41421356237313667
10
-260.19999999999999
20
130.82499999999999
10
-273.19999999999999
20
130.82499999999999
42
0.41421356237310542
10
-273.69999999999999
20
130.32499999999999
0
LWPOLYLINE
5
167
100
AcDbEntity
8
0
100
AcDbPolyline
90
8
70
1
43
0.0
10
-145.90000000000001
20
116.82500000000002
42
0.41421356237307422
10
-145.40000000000001
20
117.32500000000002
10
-145.40000000000001
20
130.32499999999999
42
0.41421356237307422
10
-145.90000000000001
20
130.82499999999999
10
-158.90000000000001
20
130.82499999999999
42
0.41421356237309503
10
-159.40000000000001
20
130.32499999999999
10
-159.40000000000001
20
117.32500000000002
42
0.41421356237309503
10
-158.90000000000001
20
116.82500000000002
0
LWPOLYLINE
5
168
100
AcDbEntity
8
0
100
AcDbPolyline
90
8
70
1
43
0.0
10
-222.10000000000002
20
116.82500000000002
42
0.41421356237310542
10
-221.60000000000002
20
117.32500000000002
10
-221.59999999999999
20
130.32499999999999
42
0.41421356237310542
10
-222.10000000000002
20
130.82499999999999
10
-235.10000000000002
20
130.82499999999999
42
0.41421356237313667
10
-235.60000000000002
20
130.32499999999999
10
-235.60000000000002
20
117.32500000000002
42
0.41421356237313667
10
-235.10000000000002
20
116.82500000000002
0
LWPOLYLINE
5
169
100
AcDbEntity
8
0
100
AcDbPolyline
90
8
70
1
43
0.0
10
-388
20
117.32500000000002
42
0.4142135623730222
10
-387.5
20
116.82500000000003
10
-374.5
20
116.82500000000002
42
0.41421356237312623
10
-374.00000000000006
20
117.32500000000002
10
-374.00000000000006
20
130.32499999999999
42
0.4142135623730222
10
-374.5
20
130.82499999999996
10
-387.5
20
130.82499999999999
42
0.41421356237312623
10
-388
20
130.32499999999999
0
LWPOLYLINE
5
170
100
AcDbEntity
8
0
100
AcDbPolyline
90
8
70
1
43
0.0
10
-355.45000000000005
20
116.82500000000002
42
0.41421356237312623
10
-354.95000000000005
20
117.32500000000002
10
-354.95000000000005
20
130.32499999999999
42
0.4142135623730222
10
-355.45000000000005
20
130.82499999999999
10
-368.44999999999999
20
130.82499999999999
42
0.41421356237312623
10
-368.94999999999993
20
130.32499999999999
10
-368.94999999999993
20
117.32500000000002
42
0.4142135623730222
10
-368.44999999999999
20
116.82500000000002
0
LWPOLYLINE
5
171
100
AcDbEntity
8
0
100
AcDbPolyline
90
14
70
1
43
0.0
10
-310.85674999999998
20
132.32499999999999
10
-310.85674999999992
20
115.325
42
-0.4142135623730846
10
-311.35674999999998
20
114.825
10
-317.35675000000003
20
114.82500000000002
42
-0.41421356237304302
10
-317.85675000000003
20
115.325
10
-317.85675000000003
20
116.82500000000002
10
-325.58749999999998
20
116.82500000000003
42
-0.4142135623730222
10
-326.08749999999992
20
117.32500000000002
10
-326.08749999999998
20
130.32499999999999
42
-0.41421356237313667
10
-325.58749999999998
20
130.82499999999999
10
-317.85675000000003
20
130.82499999999999
10
-317.85675000000003
20
132.32499999999999
42
-0.4142135623730846
10
-317.35675000000003
20
132.82500000000002
10
-311.35674999999998
20
132.82499999999999
42
-0.4142135623730846
0
LWPOLYLINE
5
172
100
AcDbEntity
8
0
100
AcDbPolyline
90
8
70
1
43
0.0
10
-98.275000000000006
20
135.875
42
0.41421356237307422
10
-97.775000000000006
20
136.375
10
-97.775000000000006
20
149.375
42
0.41421356237309503
10
-98.275000000000006
20
149.875
10
-111.27500000000001
20
149.875
42
0.41421356237309503
10
-111.77500000000002
20
149.375
10
-111.77500000000002
20
136.375
42
0.41421356237307422
10
-111.27500000000001
20
135.875
0
LWPOLYLINE
5
173
100
AcDbEntity
8
0
100
AcDbPolyline
90
8
70
1
43
0.0
10
-336.39999999999998
20
116.82500000000002
42
0.41421356237312623
10
-335.90000000000003
20
117.32500000000002
10
-335.90000000000003
20
130.32499999999999
42
0.4142135623730222
10
-336.39999999999998
20
130.82499999999999
10
-349.39999999999998
20
130.82499999999999
42
0.41421356237312623
10
-349.89999999999998
20
130.32499999999999
10
-349.89999999999998
20
117.32500000000002
42
0.4142135623730222
10
-349.39999999999998
20
116.82500000000002
0
LWPOLYLINE
5
174
100
AcDbEntity
8
0
100
AcDbPolyline
90
8
70
1
43
0.0
10
-2.5249999999999999
20
149.375
10
-2.5249999999999941
20
136.375
42
-0.41421356237307355
10
-3.0249999999999999
20
135.875
10
-16.024999999999999
20
135.87500000000003
42
-0.41421356237307549
10
-16.525000000000002
20
136.375
10
-16.525000000000009
20
149.375
42
-0.41421356237309631
10
-16.024999999999999
20
149.875
10
-3.0249999999999999
20
149.87500000000003
42
-0.41421356237310542
0
LWPOLYLINE
5
175
100
AcDbEntity
8
0
100
AcDbPolyline
90
8
70
1
43
0.0
10
-50.650000000000006
20
135.875
42
0.41421356237307422
10
-50.149999999999999
20
136.375
10
-50.150000000000006
20
149.375
42
0.41421356237308982
10
-50.650000000000006
20
149.875
10
-63.650000000000006
20
149.875
42
0.41421356237310025
10
-64.150000000000006
20
149.375
10
-64.150000000000006
20
136.375
42
0.41421356237310542
10
-63.650000000000006
20
135.875
0
LWPOLYLINE
5
176
100
AcDbEntity
8
0
100
AcDbPolyline
90
8
70
1
43
0.0
10
-74.462500000000006
20
135.875
42
0.414213562373069
10
-73.962499999999991
20
136.375
10
-73.962500000000006
20
149.375
42
0.41421356237310542
10
-74.462500000000006
20
149.875
10
-87.46250000000002
20
149.875
42
0.41421356237307422
10
-87.96250000000002
20
149.375
10
-87.96250000000002
20
136.375
42
0.4142135623730534
10
-87.46250000000002
20
135.875
0
LWPOLYLINE
5
177
100
AcDbEntity
8
0
100
AcDbPolyline
90
8
70
1
43
0.0
10
-22.074999999999999
20
135.875
42
0.41421356237307422
10
-21.574999999999992
20
136.375
10
-21.575000000000003
20
149.375
42
0.41421356237310802
10
-22.074999999999999
20
149.875
10
-35.075000000000003
20
149.875
42
0.41421356237309243
10
-35.575000000000003
20
149.375
10
-35.575000000000003
20
136.375
42
0.41421356237310025
10
-35.075000000000003
20
135.87500000000003
0
LWPOLYLINE
5
178
100
AcDbEntity
8
0
100
AcDbPolyline
90
8
70
1
43
0.0
10
-45.887500000000003
20
59.675000000000004
42
0.41421356237309503
10
-45.387500000000003
20
60.174999999999997
10
-45.387500000000003
20
73.174999999999997
42
0.41421356237309503
10
-45.887500000000003
20
73.674999999999997
10
-58.88750000000001
20
73.674999999999997
42
0.41421356237309503
10
-59.387500000000003
20
73.174999999999997
10
-59.387500000000003
20
60.174999999999997
42
0.41421356237309503
10
-58.88750000000001
20
59.675000000000004
0
LWPOLYLINE
5
179
100
AcDbEntity
8
0
100
AcDbPolyline
90
8
70
1
43
0.0
10
-22.074999999999999
20
59.675000000000004
42
0.41421356237309764
10
-21.574999999999996
20
60.174999999999997
10
-21.575000000000003
20
73.174999999999997
42
0.41421356237309503
10
-22.074999999999999
20
73.674999999999997
10
-35.075000000000003
20
73.674999999999997
42
0.41421356237309503
10
-35.575000000000003
20
73.174999999999997
10
-35.575000000000003
20
60.174999999999997
42
0.41421356237309764
10
-35.075000000000003
20
59.675000000000004
0
LWPOLYLINE
5
180
100
AcDbEntity
8
0
100
AcDbPolyline
90
8
70
1
43
0.0
10
-3.0249999999999999
20
59.675000000000004
42
0.41421356237309698
10
-2.5249999999999986
20
60.174999999999997
10
-2.5249999999999999
20
73.174999999999997
42
0.41421356237309404
10
-3.0249999999999999
20
73.674999999999997
10
-16.024999999999999
20
73.674999999999997
42
0.41421356237309503
10
-16.525000000000002
20
73.174999999999997
10
-16.525000000000002
20
60.174999999999997
42
0.41421356237309631
10
-16.024999999999999
20
59.675000000000004
0
LWPOLYLINE
5
181
100
AcDbEntity
8
0
100
AcDbPolyline
90
8
70
1
43
0.0
10
-78.4375
20
60.174999999999997
42
0.41421356237309503
10
-77.9375
20
59.675000000000004
10
-64.9375
20
59.675000000000004
42
0.41421356237310542
10
-64.4375
20
60.174999999999997
10
-64.4375
20
73.174999999999997
42
0.41421356237309503
10
-64.9375
20
73.674999999999997
10
-77.9375
20
73.674999999999997
42
0.41421356237309503
10
-78.4375
20
73.174999999999997
0
LWPOLYLINE
5
182
100
AcDbEntity
8
0
100
AcDbPolyline
90
8
70
1
43
0.0
10
-83.987499999999997
20
59.675000000000004
42
0.41421356237310542
10
-83.487499999999983
20
60.174999999999997
10
-83.487499999999983
20
73.174999999999997
42
0.41421356237309503
10
-83.987499999999997
20
73.674999999999997
10
-96.987500000000011
20
73.674999999999997
42
0.41421356237308982
10
-97.487500000000011
20
73.174999999999997
10
-97.487500000000011
20
60.174999999999997
42
0.41421356237310025
10
-96.987500000000011
20
59.675000000000004
0
LWPOLYLINE
5
183
100
AcDbEntity
8
0
100
AcDbPolyline
90
8
70
1
43
0.0
10
-141.13749999999999
20
59.675000000000004
42
0.41421356237310542
10
-140.63749999999999
20
60.174999999999997
10
-140.63749999999999
20
73.174999999999997
42
0.41421356237309503
10
-141.13749999999999
20
73.675000000000011
10
-154.13749999999999
20
73.674999999999997
42
0.41421356237308982
10
-154.63750000000002
20
73.174999999999997
10
-154.63750000000002
20
60.174999999999997
42
0.41421356237310025
10
-154.13749999999999
20
59.675000000000004
0
LWPOLYLINE
5
184
100
AcDbEntity
8
0
100
AcDbPolyline
90
8
70
1
43
0.0
10
-179.23750000000001
20
59.675000000000004
42
0.41421356237307422
10
-178.73749999999998
20
60.174999999999997
10
-178.73750000000001
20
73.174999999999997
42
0.41421356237313145
10
-179.23750000000001
20
73.674999999999997
10
-192.23750000000001
20
73.674999999999997
42
0.4142135623730222
10
-192.73750000000004
20
73.174999999999997
10
-192.73750000000004
20
60.174999999999997
42
0.41421356237312623
10
-192.23750000000001
20
59.675000000000004
0
LWPOLYLINE
5
185
100
AcDbEntity
8
0
100
AcDbPolyline
90
8
70
1
43
0.0
10
-173.68750000000003
20
60.174999999999997
42
0.41421356237312623
10
-173.1875
20
59.675000000000011
10
-160.1875
20
59.675000000000004
42
0.41421356237309503
10
-159.6875
20
60.174999999999997
10
-159.6875
20
73.174999999999997
42
0.41421356237309503
10
-160.1875
20
73.675000000000011
10
-173.1875
20
73.674999999999997
42
0.4142135623730222
10
-173.68750000000003
20
73.174999999999997
0
LWPOLYLINE
5
186
100
AcDbEntity
8
0
100
AcDbPolyline
90
8
70
1
43
0.0
10
-274.48750000000007
20
59.675000000000004
42
0.4142135623730222
10
-273.98750000000007
20
60.174999999999997
10
-273.98750000000001
20
73.174999999999997
42
0.41421356237312101
10
-274.48750000000007
20
73.675000000000011
10
-287.48750000000001
20
73.674999999999997
42
0.4142135623730222
10
-287.98750000000001
20
73.174999999999997
10
-287.98750000000001
20
60.174999999999997
42
0.41421356237312623
10
-287.48750000000001
20
59.674999999999997
0
LWPOLYLINE
5
187
100
AcDbEntity
8
0
100
AcDbPolyline
90
8
70
1
43
0.0
10
-336.39999999999998
20
59.675000000000004
42
0.41421356237310542
10
-335.90000000000003
20
60.174999999999997
10
-335.90000000000003
20
73.174999999999997
42
0.4142135623730222
10
-336.39999999999998
20
73.674999999999969
10
-349.39999999999998
20
73.674999999999997
42
0.41421356237311585
10
-349.89999999999998
20
73.174999999999997
10
-349.89999999999998
20
60.174999999999997
42
0.4142135623730222
10
-349.39999999999998
20
59.675000000000026
0
ENDSEC
0
SECTION
2
OBJECTS
0
DICTIONARY
5
C
100
AcDbDictionary
3
ACAD_GROUP
350
D
3
ACAD_MLINESTYLE
350
17
0
DICTIONARY
5
D
100
AcDbDictionary
0
DICTIONARY
5
1A
330
C
100
AcDbDictionary
0
DICTIONARY
5
17
100
AcDbDictionary
0
ENDSEC
0
EOF
